#tb 0: 1/1000
0,          0,          0,        0,   135000, 0x9dceed6d
0,        249,        249,        0,   135000, 0xcb87787f
0,        499,        499,        0,   135000, 0xdb4361ce
0,        749,        749,        0,   135000, 0xb8fd81c2
0,       1000,       1000,        0,   135000, 0xbf86a7af
0,       1249,       1249,        0,   135000, 0x2e7787e3
0,       1499,       1499,        0,   135000, 0x6cec6ebd
0,       1749,       1749,        0,   135000, 0xa4d08c07
0,       2000,       2000,        0,   135000, 0x1be48faf
0,       2249,       2249,        0,   135000, 0xf3cd8ede
0,       2499,       2499,        0,   135000, 0x33ec8a49
0,       2749,       2749,        0,   135000, 0x11e887ec
0,       3000,       3000,        0,   135000, 0x3e215c25
0,       3249,       3249,        0,   135000, 0x1a2cb3f8
0,       3499,       3499,        0,   135000, 0x7fb0e48a
0,       3749,       3749,        0,   135000, 0x749f3738
0,       4000,       4000,        0,   135000, 0x686e78e9
0,       4249,       4249,        0,   135000, 0x29515bc7
0,       4499,       4499,        0,   135000, 0x987126bd
0,       4749,       4749,        0,   135000, 0xdf77bb13
0,       5000,       5000,        0,   135000, 0x5fb1468a
0,       5249,       5249,        0,   135000, 0x06ea50ea
0,       5499,       5499,        0,   135000, 0x7bd9c715
0,       5749,       5749,        0,   135000, 0xdd6e6831
0,       6000,       6000,        0,   135000, 0x0ee3760f
0,       6249,       6249,        0,   135000, 0xc7984dc8
0,       6499,       6499,        0,   135000, 0x7e385bff
0,       6749,       6749,        0,   135000, 0xae155ab9
0,       7000,       7000,        0,   135000, 0xc05ee8f7
0,       7249,       7249,        0,   135000, 0x93de3392
0,       7499,       7499,        0,   135000, 0xfe45b38b
0,       7749,       7749,        0,   135000, 0xeb5ed72c
0,       8000,       8000,        0,   135000, 0x0794cb57
0,       8249,       8249,        0,   135000, 0x2578c6e5
0,       8499,       8499,        0,   135000, 0x78486707
0,       8749,       8749,        0,   135000, 0x41e1f0e6
0,       9000,       9000,        0,   135000, 0x4508eb76
0,       9249,       9249,        0,   135000, 0xd8c087f3
0,       9499,       9499,        0,   135000, 0x1a8db89a
0,       9749,       9749,        0,   135000, 0x6dbd90c6
0,      10000,      10000,        0,   135000, 0x0845e400
0,      10249,      10249,        0,   135000, 0xe8b02fc2
0,      10499,      10499,        0,   135000, 0x8007d813
0,      10749,      10749,        0,   135000, 0xdfb04e69
0,      11000,      11000,        0,   135000, 0x5746cf71
0,      11249,      11249,        0,   135000, 0xe510299f
0,      11499,      11499,        0,   135000, 0xeea0c829
0,      11749,      11749,        0,   135000, 0x7c0578ab
0,      12000,      12000,        0,   135000, 0xb1569ce9
0,      12249,      12249,        0,   135000, 0x6c233986
0,      12499,      12499,        0,   135000, 0x95b77f3d
0,      12749,      12749,        0,   135000, 0xfc368d80
0,      13000,      13000,        0,   135000, 0x5c73b064
0,      13249,      13249,        0,   135000, 0x2206da8d
0,      13499,      13499,        0,   135000, 0x62bb599e
0,      13749,      13749,        0,   135000, 0x15a68991
0,      14000,      14000,        0,   135000, 0x5f5eb810
0,      14249,      14249,        0,   135000, 0x85a9634a
0,      14499,      14499,        0,   135000, 0xf24b5c1a
0,      14749,      14749,        0,   135000, 0x38034850
0,      15000,      15000,        0,   135000, 0x48fd3599
0,      15249,      15249,        0,   135000, 0xb9d62408
0,      15499,      15499,        0,   135000, 0xaf202a21
0,      15749,      15749,        0,   135000, 0x341aa582
0,      16000,      16000,        0,   135000, 0x90cdc9bb
0,      16249,      16249,        0,   135000, 0x0b52f319
0,      16499,      16499,        0,   135000, 0xce61aa5e
0,      16749,      16749,        0,   135000, 0x988acb45
0,      17000,      17000,        0,   135000, 0xcd353664
0,      17249,      17249,        0,   135000, 0xa80c8ce9
0,      17499,      17499,        0,   135000, 0x15dce784
0,      17749,      17749,        0,   135000, 0x16bd4519
0,      18000,      18000,        0,   135000, 0x571712f3
0,      18249,      18249,        0,   135000, 0x6b109f1e
0,      18499,      18499,        0,   135000, 0x8e4c19aa
0,      18749,      18749,        0,   135000, 0x4132bd4c
0,      19000,      19000,        0,   135000, 0x5babafe2
0,      19249,      19249,        0,   135000, 0xddef6313
0,      19499,      19499,        0,   135000, 0x76d6b48b
0,      19749,      19749,        0,   135000, 0x929e7702
0,      20000,      20000,        0,   135000, 0x33f5e4a1
0,      20249,      20249,        0,   135000, 0xdb7041bf
0,      20499,      20499,        0,   135000, 0xbc761e04
0,      20749,      20749,        0,   135000, 0x0b2a81e6
0,      21000,      21000,        0,   135000, 0xf6fd20ea
0,      21249,      21249,        0,   135000, 0x1894a26c
0,      21499,      21499,        0,   135000, 0xb25e216f
0,      21749,      21749,        0,   135000, 0x83bb02ee
0,      22000,      22000,        0,   135000, 0x6952a3c3
0,      22249,      22249,        0,   135000, 0x372184d6
0,      22499,      22499,        0,   135000, 0x2ac47afe
0,      22749,      22749,        0,   135000, 0x14c33a35
0,      23000,      23000,        0,   135000, 0xdc08470e
